#!OML:ASF I:\Actors\actors\Patient Classification 2\Patient 1\Session 1\actor1.ASF
:FULLY-SPECIFIED
:DEGREES
766
root -1.09046 18.0794 6.0741 -1.69732 -3.27618 -4.99548
lowerback 3.52194 1.25287 2.65908
upperback -0.186159 1.79201 0.466258
thorax -2.09878 0.86726 -1.10487
lowerneck -9.90868 -2.36458 2.81165
upperneck 21.4422 -4.2967 2.1067
head 8.27801 -1.60469 -0.198136
rclavicle -2.50966e-015 9.54166e-015
rhumerus -54.4888 -8.70506 -77.4221
rradius 52.0602
rwrist 7.56463
rhand 1.29079 -32.7021
rfingers 7.12502
rthumb 26.8261 299.181
lclavicle -2.50966e-015 9.54166e-015
lhumerus -42.2675 0.880357 87.7495
lradius 47.2151
lwrist -0.842812
lhand -1.00007 -16.7607
lfingers 7.12502
lthumb 24.6321 11.6742
rfemur 12.259 -0.0595903 21.134
rtibia 3.81667e-014
rfoot -18.1026 -9.24512
rtoes 4.92355
lfemur 21.6625 -8.61875 -13.063
ltibia -19.0182
lfoot -5.74686 20.4235
ltoes -8.31987
767
root -1.09341 18.0785 6.07239 -1.72774 -3.3035 -4.98555
lowerback 3.45516 1.30042 2.64195
upperback -0.18492 1.85216 0.453722
thorax -2.05787 0.89797 -1.10933
lowerneck -10.0033 -2.33608 2.79159
upperneck 21.3896 -4.25201 2.09485
head 8.27773 -1.58637 -0.195339
rclavicle -1.3331e-014 -1.55052e-014
rhumerus -54.496 -9.04277 -77.646
rradius 51.1403
rwrist 7.95057
rhand 1.011 -32.9122
rfingers 7.12502
rthumb 26.5584 298.93
lclavicle -1.3331e-014 -1.55052e-014
lhumerus -42.3725 0.995436 87.7698
lradius 46.8665
lwrist -1.1322
lhand -1.20842 -17.0562
lfingers 7.12502
lthumb 24.4324 11.4058
rfemur 12.2778 -0.035437 21.1348
rtibia -1.27222e-014
rfoot -18.081 -9.24806
rtoes 4.65934
lfemur 21.7075 -8.59288 -13.0652
ltibia -19.0422
lfoot -5.71969 20.4047
ltoes -8.40051
768
root -1.09601 18.0776 6.07087 -1.75764 -3.31579 -5.01511
lowerback 3.4138 1.32321 2.64929
upperback -0.197639 1.88223 0.477248
thorax -2.04716 0.913053 -1.08984
lowerneck -10.1501 -2.30109 2.719
upperneck 21.432 -4.18637 2.0453
head 8.31897 -1.56326 -0.195698
rclavicle 1.61513e-016 -1.03368e-014
rhumerus -54.5397 -9.34174 -77.8245
rradius 50.2855
rwrist 8.4274
rhand 0.838397 -33.0886
rfingers 7.12502
rthumb 26.3932 298.728
lclavicle 1.61513e-016 -1.03368e-014
lhumerus -42.4923 1.38164 87.7111
lradius 46.5167
lwrist -1.67048
lhand -1.26105 -17.4127
lfingers 7.12502
lthumb 24.382 11.0561
rfemur 12.3035 -0.0280323 21.1765
rtibia -2.22639e-014
rfoot -18.0655 -9.22838
rtoes 4.58725
lfemur 21.761 -8.64086 -13.0356
ltibia -19.0755
lfoot -5.76289 20.4298
ltoes -8.44875
769
root -1.09643 18.0746 6.07318 -1.80305 -3.34993 -5.05616
lowerback 3.34162 1.34203 2.70118
upperback -0.200708 1.90792 0.520035
thorax -2.00866 0.926029 -1.07424
lowerneck -10.2726 -2.28182 2.6813
upperneck 21.4603 -4.13103 1.92214
head 8.34836 -1.55037 -0.226852
rclavicle -1.93691e-014 5.1684e-015
rhumerus -54.6266 -9.55798 -77.999
rradius 49.4769
rwrist 8.62257
rhand 0.247976 -32.7526
rfingers 7.12502
rthumb 25.8279 298.981
lclavicle -1.93691e-014 5.1684e-015
lhumerus -42.5901 1.8456 87.6587
lradius 46.0608
lwrist -2.27397
lhand -1.3686 -17.8142
lfingers 7.12502
lthumb 24.2789 10.6684
rfemur 12.3559 0.00431143 21.2168
rtibia 2.22639e-014
rfoot -18.0743 -9.18901
rtoes 4.74022
lfemur 21.8688 -8.82998 -13.0472
ltibia -19.1272
lfoot -5.86989 20.6116
ltoes -8.24072
770
root -1.09537 18.0712 6.0786 -1.84511 -3.41964 -5.09482
lowerback 3.18601 1.38073 2.81524
upperback -0.167765 1.95809 0.535326
thorax -1.8824 0.952012 -1.11967
lowerneck -10.3188 -2.26489 2.76938
upperneck 21.3716 -4.07327 1.70161
head 8.31951 -1.53963 -0.309009
rclavicle -4.34841e-015 -7.95139e-015
rhumerus -54.6752 -9.71124 -78.3011
rradius 48.6206
rwrist 8.05966
rhand -1.37422 -31.7477
rfingers 7.12502
rthumb 24.2735 299.769
lclavicle -4.34841e-015 -7.95139e-015
lhumerus -42.6668 1.86701 87.7358
lradius 45.5669
lwrist -2.53233
lhand -1.55371 -17.9748
lfingers 7.12502
lthumb 24.1014 10.5315
rfemur 12.4078 0.0759561 21.243
rtibia -3.18055e-015
rfoot -18.0946 -9.12393
rtoes 5.03649
lfemur 22.0027 -9.10331 -13.1003
ltibia -19.1822
lfoot -6.00757 20.9196
ltoes -7.8495
771
root -1.09677 18.0706 6.07846 -1.86034 -3.42911 -5.13635
lowerback 3.11334 1.39339 2.91025
upperback -0.173591 1.97598 0.534176
thorax -1.84373 0.960507 -1.17273
lowerneck -10.2954 -2.23545 2.8167
upperneck 21.2518 -4.01073 1.58982
head 8.2713 -1.52035 -0.346412
rclavicle 1.31074e-015 -8.34896e-015
rhumerus -54.7343 -10.0219 -78.436
rradius 48.1407
rwrist 9.28027
rhand 0.0293198 -32.7286
rfingers 7.12502
rthumb 25.6185 298.975
lclavicle 1.31074e-015 -8.34896e-015
lhumerus -40.3077 -0.143001 88.5157
lradius 39.8643
lwrist -0.36461
lhand -3.73401 -20.2708
lfingers 7.12502
lthumb 22.0094 8.49691
rfemur 12.4233 0.0830626 21.2869
rtibia 4.77083e-015
rfoot -18.0868 -9.10296
rtoes 4.93754
lfemur 22.0508 -9.19783 -13.0766
ltibia -19.224
lfoot -6.01559 21.0209
ltoes -7.7716
772
root -1.09929 18.0721 6.07366 -1.86611 -3.37667 -5.15747
lowerback 3.1412 1.3715 2.93848
upperback -0.228268 1.9503 0.543335
thorax -1.91602 0.945881 -1.17971
lowerneck -10.2818 -2.18338 2.793
upperneck 21.1809 -3.92582 1.5688
head 8.24524 -1.48579 -0.3402
rclavicle 1.47722e-014 1.59028e-015
rhumerus -54.8335 -10.2352 -78.6382
rradius 47.569
rwrist 10.1431
rhand 0.462819 -33.0616
rfingers 7.12502
rthumb 26.0336 298.702
lclavicle 1.47722e-014 1.59028e-015
lhumerus -40.5934 0.634541 88.2106
lradius 39.3136
lwrist -1.10454
lhand -3.91257 -21.4343
lfingers 7.12502
lthumb 21.8379 7.35351
rfemur 12.4215 0.0261509 21.3191
rtibia -4.77083e-015
rfoot -18.0488 -9.14796
rtoes 4.33689
lfemur 22.0348 -9.14968 -13.0194
ltibia -19.2544
lfoot -5.8947 20.9391
ltoes -7.99913
773
root -1.10166 18.0724 6.06963 -1.88711 -3.32258 -5.15751
lowerback 3.1732 1.34153 2.90632
upperback -0.262182 1.91182 0.579867
thorax -1.97271 0.926056 -1.12402
lowerneck -10.36 -2.10134 2.78785
upperneck 21.1419 -3.80406 1.53047
head 8.24621 -1.43241 -0.340722
rclavicle -7.91411e-015 5.56597e-015
rhumerus -54.9074 -10.2689 -78.9485
rradius 46.9615
rwrist 10.4244
rhand -0.21918 -32.7136
rfingers 7.12502
rthumb 25.3804 298.956
lclavicle -7.91411e-015 5.56597e-015
lhumerus -40.6638 0.952696 88.1504
lradius 38.5799
lwrist -1.52168
lhand -4.20166 -22.042
lfingers 7.12502
lthumb 21.5603 6.7779
rfemur 12.4386 -0.0303583 21.3243
rtibia 4.77083e-015
rfoot -18.0404 -9.176
rtoes 3.8291
lfemur 22.032 -9.07948 -12.9836
ltibia -19.2741
lfoot -5.79342 20.802
ltoes -8.19161
774
root -1.10522 18.0705 6.06645 -1.92857 -3.27878 -5.16429
lowerback 3.20854 1.31416 2.86001
upperback -0.280108 1.87626 0.627562
thorax -2.01546 0.908282 -1.04887
lowerneck -10.4256 -2.0409 2.75224
upperneck 21.0966 -3.71924 1.55305
head 8.24458 -1.39314 -0.319379
rclavicle 5.87036e-015 -7.95139e-016
rhumerus -54.964 -10.2284 -79.2966
rradius 46.4021
rwrist 10.0737
rhand -1.30681 -31.7553
rfingers 7.12502
rthumb 24.3381 299.77
lclavicle 5.87036e-015 -7.95139e-016
lhumerus -40.6095 0.96571 88.2272
lradius 37.8008
lwrist -1.74508
lhand -4.39302 -22.209
lfingers 7.12502
lthumb 21.3765 6.63183
rfemur 12.4827 -0.0773771 21.337
rtibia 3.81667e-014
rfoot -18.0988 -9.11574
rtoes 4.00013
lfemur 22.0568 -8.99538 -12.9339
ltibia -19.2923
lfoot -5.74865 20.6377
ltoes -8.28181
775
root -1.10889 18.0686 6.06286 -1.96137 -3.24375 -5.14181
lowerback 3.2127 1.28971 2.83136
upperback -0.299519 1.84321 0.630061
thorax -2.03998 0.89161 -1.02919
lowerneck -10.4822 -2.0112 2.72806
upperneck 21.108 -3.6795 1.56827
head 8.25978 -1.37397 -0.307178
rclavicle -9.06955e-015 -5.96354e-015
rhumerus -55.0225 -10.3165 -79.5729
rradius 45.9787
rwrist 9.86133
rhand -1.55278 -31.0107
rfingers 7.12502
rthumb 24.1023 300.483
lclavicle -9.06955e-015 -5.96354e-015
lhumerus -40.7321 1.2286 88.1294
lradius 37.2778
lwrist -2.14023
lhand -4.35431 -22.4088
lfingers 7.12502
lthumb 21.4137 6.42783
rfemur 12.51 -0.114103 21.3194
rtibia 7.95139e-015
rfoot -18.1261 -9.02658
rtoes 4.47193
lfemur 22.0763 -8.92472 -12.9205
ltibia -19.3214
lfoot -5.68876 20.5365
ltoes -8.38621
776
root -1.11255 18.0682 6.05868 -1.98364 -3.21477 -5.14716
lowerback 3.20214 1.26684 2.85572
upperback -0.306904 1.81344 0.630287
thorax -2.04205 0.876393 -1.04103
lowerneck -10.613 -1.98821 2.7249
upperneck 21.1845 -3.6449 1.5221
head 8.30862 -1.35966 -0.32083
rclavicle -3.05631e-015 3.97569e-015
rhumerus -55.0678 -10.3971 -79.8678
rradius 45.7113
rwrist 9.98091
rhand -1.37355 -30.8319
rfingers 7.12502
rthumb 24.2741 300.685
lclavicle -3.05631e-015 3.97569e-015
lhumerus -40.9656 1.92921 87.8261
lradius 36.9511
lwrist -3.00152
lhand -4.13493 -22.6681
lfingers 7.12502
lthumb 21.6244 6.14444
rfemur 12.5185 -0.148182 21.3389
rtibia 1.74931e-014
rfoot -18.085 -8.99674
rtoes 4.58734
lfemur 22.0899 -8.88084 -12.884
ltibia -19.3546
lfoot -5.60218 20.4929
ltoes -8.40888
777
root -1.11642 18.0676 6.05495 -2.03779 -3.21482 -5.21222
lowerback 3.22796 1.2557 2.90754
upperback -0.293108 1.80204 0.668245
thorax -2.04246 0.870432 -1.03099
lowerneck -10.6869 -1.96651 2.7575
upperneck 21.1455 -3.60448 1.43973
head 8.30675 -1.3464 -0.350248
rclavicle 8.10048e-015 -9.14409e-015
rhumerus -55.1043 -10.3102 -80.2447
rradius 45.6198
rwrist 10.1623
rhand -1.05392 -30.9851
rfingers 7.12502
rthumb 24.5805 300.573
lclavicle 8.10048e-015 -9.14409e-015
lhumerus -41.1361 2.76122 87.4932
lradius 36.5677
lwrist -4.05885
lhand -4.05676 -22.9777
lfingers 7.12502
lthumb 21.6995 5.82612
rfemur 12.5654 -0.159084 21.4291
rtibia -4.45278e-014
rfoot -18.0631 -8.98633
rtoes 4.53886
lfemur 22.1432 -8.82693 -12.789
ltibia -19.3648
lfoot -5.5234 20.4382
ltoes -8.43736
